<svg xmlns="http://www.w3.org/2000/svg" xmlns:xlink="http://www.w3.org/1999/xlink" viewBox="0,0,256,256" width="100px" height="100px"><g fill-opacity="0" fill="#dddddd" fill-rule="nonzero" stroke="none" stroke-width="1" stroke-linecap="butt" stroke-linejoin="miter" stroke-miterlimit="10" stroke-dasharray="" stroke-dashoffset="0" font-family="none" font-weight="none" font-size="none" text-anchor="none" style="mix-blend-mode: normal"><path d="M0,256v-256h256v256z" id="bgRectangle"></path></g><g fill="#000000" fill-rule="nonzero" stroke="none" stroke-width="1" stroke-linecap="butt" stroke-linejoin="miter" stroke-miterlimit="10" stroke-dasharray="" stroke-dashoffset="0" font-family="none" font-weight="none" font-size="none" text-anchor="none" style="mix-blend-mode: normal"><g transform="scale(2.56,2.56)"><path d="M39.5,1.97266c-3.00595,0 -5.68637,1.73308 -7.54297,4.43359c-1.8566,2.70051 -2.95703,6.38932 -2.95703,10.56641c0,7.77899 0.86997,13.30488 2.4043,17.15234c-6.3511,4.74673 -10.4043,11.69048 -10.4043,18.84766c0,6.41903 3.35953,11.75556 8.63672,15.38086c1.01329,0.69611 2.09851,1.33106 3.24414,1.9043c-2.50991,3.64559 -4.88086,8.84055 -4.88086,13.71484v1h0.20313c0.47551,2.69667 2.66508,4.81735 5.44531,4.98438c0.11811,0.53359 0.24945,1.05996 0.39844,1.57617c0.14748,1.8126 0.66495,3.49426 1.4707,4.92578c0.54168,0.96247 1.5692,1.51367 2.64258,1.51367h1.70898h6.9707h6.32031h6.9707h1.70898c1.07482,0 2.09932,-0.55339 2.64063,-1.51367c0.80678,-1.4317 1.32498,-3.11323 1.47266,-4.92578c0.14899,-0.51621 0.28033,-1.04259 0.39844,-1.57617c2.78024,-0.16703 4.9698,-2.2877 5.44531,-4.98437h0.20313v-1c0,-4.87434 -2.37095,-10.06925 -4.88086,-13.71484c1.14563,-0.57324 2.23085,-1.20819 3.24414,-1.9043c5.27719,-3.6253 8.63672,-8.96183 8.63672,-15.38086c0,-7.1358 -4.06302,-14.04693 -10.37109,-18.78125c4.09694,-1.56832 7.37109,-5.37476 7.37109,-10.21875c0,-6.55556 -5.44444,-12 -12,-12c-2.76644,0 -5.48582,0.5813 -7.57422,2.17383c-1.12847,0.86052 -2.02565,2.03266 -2.62305,3.48828l-0.19727,0.39063c-1.3447,2.6894 -2.24263,6.61181 -2.51367,9.97852c-0.36341,-0.01283 -0.72501,-0.03125 -1.0918,-0.03125c-0.15129,0 -0.30042,0.00759 -0.45117,0.00977c0.44884,-3.77368 0.45117,-7.85277 0.45117,-11.50977c0,-4.89035 -1.02185,-8.49374 -2.89648,-10.92383c-1.87464,-2.43009 -4.61109,-3.57617 -7.60352,-3.57617zM39.5,3.97266c2.50758,0 4.52112,0.85391 6.02148,2.79883c1.50036,1.94491 2.47852,5.09152 2.47852,9.70117c0,3.77047 -0.01128,7.92058 -0.47852,11.60547c-0.6552,0.05201 -1.30695,0.11722 -1.94922,0.20898c0.35887,-2.20122 0.42773,-4.97361 0.42773,-8.32422c0,-4.08785 -0.57725,-7.03006 -1.61523,-9.00781c-1.03799,-1.97775 -2.61604,-2.98242 -4.38477,-2.98242c-1.77713,0 -3.29616,1.35776 -4.33789,3.47656c-1.04173,2.1188 -1.66211,5.05823 -1.66211,8.52344c0,4.20783 1.07654,8.31094 2.66992,10.99219c-1.24912,0.58981 -2.4449,1.2561 -3.58008,1.99023c-1.28094,-3.47454 -2.08984,-8.66792 -2.08984,-15.98242c0,-3.82292 1.02457,-7.1341 2.60547,-9.43359c1.5809,-2.29949 3.65048,-3.56641 5.89453,-3.56641zM40,8.97266c1.41128,0 2.58299,0.70002 3.5,2.44727c0.91701,1.74725 1.5,4.55082 1.5,8.54297c0,3.51277 -0.08316,6.37536 -0.4668,8.49609c-2.43501,0.43228 -4.7634,1.14206 -6.94336,2.08594c-1.47483,-2.44974 -2.58984,-6.48692 -2.58984,-10.57227c0,-3.34479 0.61033,-6.15333 1.55859,-8.08203c0.94826,-1.9287 2.17853,-2.91797 3.44141,-2.91797zM64,13.97266c5.44444,0 10,4.55556 10,10c0,5.1951 -4.78677,9 -9.5,9c-2.37418,0 -4.75697,-1.36626 -6.55078,-3.47266c-1.79381,-2.1064 -2.94922,-4.91525 -2.94922,-7.52734c0,-3.14028 1.03882,-5.01635 2.63867,-6.23633c1.59985,-1.21997 3.88077,-1.76367 6.36133,-1.76367zM53.47266,25.27539c0.29713,1.06622 0.73107,2.09768 1.27148,3.07227c-0.54742,-0.08421 -1.09894,-0.15532 -1.65625,-0.21094c0.07802,-0.91541 0.20712,-1.88271 0.38477,-2.86133zM50,29.97266c2.17889,0 4.29464,0.25081 6.32813,0.69922c0.03381,0.04058 0.06344,0.08482 0.09766,0.125c2.08119,2.44385 4.9484,4.17578 8.07422,4.17578c0.53311,0 1.06417,-0.0529 1.5918,-0.12891c6.64885,4.41464 10.9082,11.28785 10.9082,18.12891c0,5.73097 -2.91172,10.39522 -7.76953,13.73242c-4.85782,3.3372 -11.66972,5.26758 -19.23047,5.26758c-7.56075,0 -14.37265,-1.93038 -19.23047,-5.26758c-4.85782,-3.3372 -7.76953,-8.00145 -7.76953,-13.73242c0,-11.46193 12.051,-23 27,-23zM64.50391,37.46484c-0.22248,-0.00522 -0.42164,0.1372 -0.48861,0.34943c-0.06697,0.21222 0.01437,0.44317 0.19955,0.56659c0.68731,0.47651 1.34133,0.9802 1.95898,1.50977c0.13572,0.11654 0.3233,0.15183 0.49209,0.09256c0.16879,-0.05927 0.29313,-0.20409 0.32618,-0.3799c0.03306,-0.17581 -0.0302,-0.3559 -0.16593,-0.47243c-0.64434,-0.55244 -1.32632,-1.07677 -2.04102,-1.57227c-0.08212,-0.05896 -0.18018,-0.09165 -0.28125,-0.09375zM40.51953,39.97266c-0.144,-0.008 -0.27505,0.04848 -0.37305,0.14648l-3,3c-0.117,0.116 -0.16672,0.28236 -0.13672,0.44336c0.03,0.162 0.13806,0.30019 0.28906,0.36719l9,4c0.064,0.03 0.13317,0.04297 0.20117,0.04297c0.154,0 0.30339,-0.07117 0.40039,-0.20117c0.14,-0.188 0.13247,-0.44505 -0.01953,-0.62305l-6,-7c-0.09,-0.105 -0.22233,-0.16978 -0.36133,-0.17578zM68.06055,40.4668c-0.01695,-0.00021 -0.0339,0.00044 -0.05078,0.00195c-0.19446,0.01617 -0.36176,0.14398 -0.42847,0.32736c-0.06672,0.18337 -0.02068,0.38881 0.11793,0.52616c3.35307,3.45281 5.30078,7.71071 5.30078,12.15039c-0.00255,0.18032 0.09219,0.34804 0.24794,0.43894c0.15575,0.0909 0.34838,0.0909 0.50413,0c0.15575,-0.0909 0.25049,-0.25863 0.24794,-0.43894c0,-4.73231 -2.07905,-9.23846 -5.58398,-12.84766c-0.09227,-0.09856 -0.22048,-0.15562 -0.35547,-0.1582zM54,45.97266c-0.36064,-0.0051 -0.69608,0.18438 -0.87789,0.49587c-0.18181,0.3115 -0.18181,0.69676 0,1.00825c0.18181,0.3115 0.51725,0.50097 0.87789,0.49587h3c0.36064,0.0051 0.69608,-0.18438 0.87789,-0.49587c0.18181,-0.3115 0.18181,-0.69676 0,-1.00825c-0.18181,-0.3115 -0.51725,-0.50097 -0.87789,-0.49587zM44.5,48.97266c-1.38071,0 -2.5,1.11929 -2.5,2.5c0,1.38071 1.11929,2.5 2.5,2.5c1.38071,0 2.5,-1.11929 2.5,-2.5c0,-1.38071 -1.11929,-2.5 -2.5,-2.5zM55.5,48.97266c-1.38071,0 -2.5,1.11929 -2.5,2.5c0,1.38071 1.11929,2.5 2.5,2.5c1.38071,0 2.5,-1.11929 2.5,-2.5c0,-1.38071 -1.11929,-2.5 -2.5,-2.5zM50,52.97266c-1.565,0 -2.5,0.748 -2.5,2c0,1.20795 0.86023,2.21725 2,2.44922v1.05078c0,0.55114 -0.19774,0.87694 -0.50781,1.11523c-0.31008,0.2383 -0.76313,0.36644 -1.22852,0.35352c-0.46539,-0.01293 -0.93092,-0.16726 -1.25195,-0.41992c-0.321,-0.25268 -0.51172,-0.57383 -0.51172,-1.04883c0.00255,-0.18032 -0.09219,-0.34804 -0.24794,-0.43894c-0.15575,-0.0909 -0.34838,-0.0909 -0.50413,0c-0.15575,0.0909 -0.25049,0.25863 -0.24794,0.43894c0,0.775 0.37181,1.42259 0.89453,1.83398c0.52272,0.4114 1.18219,0.61644 1.8418,0.63477c0.65961,0.01832 1.33156,-0.15041 1.86523,-0.56055c0.16384,-0.12591 0.27211,-0.31786 0.39844,-0.49023c0.12633,0.17237 0.2346,0.36432 0.39844,0.49023c0.53367,0.41014 1.20562,0.57887 1.86523,0.56055c0.65961,-0.01832 1.31908,-0.22337 1.8418,-0.63477c0.52272,-0.4114 0.89453,-1.05898 0.89453,-1.83398c0.00255,-0.18032 -0.09219,-0.34804 -0.24794,-0.43894c-0.15575,-0.0909 -0.34838,-0.0909 -0.50413,0c-0.15575,0.0909 -0.25049,0.25863 -0.24794,0.43894c0,0.475 -0.19069,0.79616 -0.51172,1.04883c-0.32103,0.25267 -0.78656,0.407 -1.25195,0.41992c-0.46539,0.01293 -0.91844,-0.11522 -1.22852,-0.35352c-0.31008,-0.2383 -0.50781,-0.5641 -0.50781,-1.11523v-1.05078c1.13977,-0.23197 2,-1.24127 2,-2.44922c0,-1.252 -0.935,-2 -2.5,-2zM34.73047,71.10352c0.39989,0.1678 0.80657,0.3268 1.21875,0.48047c-1.72311,3.2826 -2.77047,7.18287 -2.91602,11.38867h-2.90625c0.31084,-4.10368 2.40725,-8.73385 4.60352,-11.86914zM65.26953,71.10352c2.19626,3.13529 4.29267,7.76546 4.60352,11.86914h-2.90625c-0.14555,-4.2058 -1.1929,-8.10607 -2.91602,-11.38867c0.41218,-0.15367 0.81886,-0.31267 1.21875,-0.48047zM37.87891,72.2207c3.7011,1.13574 7.79648,1.75195 12.12109,1.75195c4.32461,0 8.41999,-0.61621 12.12109,-1.75195c1.79452,3.29341 2.87891,7.348 2.87891,11.75195c0,0.60328 -0.02264,1.20084 -0.0625,1.79102c-1.34554,-3.38255 -4.05776,-5.79102 -7.4375,-5.79102c-3.38307,0 -6.1179,2.43839 -7.5,5.81055c-1.3821,-3.37216 -4.11693,-5.81055 -7.5,-5.81055c-3.37974,0 -6.09196,2.40847 -7.4375,5.79102c-0.03986,-0.59017 -0.0625,-1.18773 -0.0625,-1.79102c0,-4.40395 1.08439,-8.45854 2.87891,-11.75195zM42.5,81.97266c3.45747,0 6.5,3.67966 6.5,8.5c0,1.88219 -0.47601,3.60959 -1.26172,5.00391c-0.16669,0.29572 -0.51126,0.49609 -0.89844,0.49609h-6.9707h-1.70898c-0.38662,0 -0.73407,-0.19861 -0.90039,-0.49414v-0.00195c-0.78493,-1.39449 -1.25977,-3.12171 -1.25977,-5.00391c0,-4.82034 3.04253,-8.5 6.5,-8.5zM57.5,81.97266c3.45747,0 6.5,3.67966 6.5,8.5c0,1.88219 -0.47601,3.60959 -1.26172,5.00391c-0.16669,0.29572 -0.51126,0.49609 -0.89844,0.49609h-1.70898h-6.9707c-0.38662,0 -0.73407,-0.19861 -0.90039,-0.49414v-0.00195c-0.78493,-1.39449 -1.25977,-3.12171 -1.25977,-5.00391c0,-4.82034 3.04253,-8.5 6.5,-8.5zM30.20117,84.97266h2.83398c0.03465,0.99208 0.10381,1.97401 0.23828,2.92969c-1.51526,-0.28493 -2.68234,-1.4434 -3.07227,-2.92969zM66.96484,84.97266h2.83398c-0.38992,1.48629 -1.55701,2.64476 -3.07227,2.92969c0.13447,-0.95568 0.20363,-1.93761 0.23828,-2.92969zM50,95.16211c0.10929,0.2655 0.20396,0.54134 0.30664,0.81055h-0.61328c0.10314,-0.26904 0.1972,-0.54482 0.30664,-0.81055z"></path></g></g></svg>